<svg width="48" height="48" viewBox="0 0 48 48" fill="none" xmlns="http://www.w3.org/2000/svg">
<g filter="url(#filter0_d_305_5786)">
<rect x="8" y="4" width="32" height="32" rx="8" fill="white" shape-rendering="crispEdges"/>
<rect x="8.5" y="4.5" width="31" height="31" rx="7.5" stroke="#F6F6F6" shape-rendering="crispEdges"/>
<path d="M25.3333 23.9997L28 26.6663M28 26.6663L30.6667 23.9997M28 26.6663V21.333M26.6667 13.333V15.9997M30 19.569V15.9997C30 15.6461 29.8595 15.3069 29.6095 15.0569C29.3594 14.8068 29.0203 14.6663 28.6667 14.6663H19.3333C18.9797 14.6663 18.6406 14.8068 18.3905 15.0569C18.1405 15.3069 18 15.6461 18 15.9997V25.333C18 25.6866 18.1405 26.0258 18.3905 26.2758C18.6406 26.5259 18.9797 26.6663 19.3333 26.6663H24.2287M18 18.6663H30M21.3333 13.333V15.9997" stroke="#111827" stroke-linecap="round" stroke-linejoin="round"/>
</g>
<defs>
<filter id="filter0_d_305_5786" x="0" y="0" width="48" height="48" filterUnits="userSpaceOnUse" color-interpolation-filters="sRGB">
<feFlood flood-opacity="0" result="BackgroundImageFix"/>
<feColorMatrix in="SourceAlpha" type="matrix" values="0 0 0 0 0 0 0 0 0 0 0 0 0 0 0 0 0 0 127 0" result="hardAlpha"/>
<feOffset dy="4"/>
<feGaussianBlur stdDeviation="4"/>
<feComposite in2="hardAlpha" operator="out"/>
<feColorMatrix type="matrix" values="0 0 0 0 0 0 0 0 0 0 0 0 0 0 0 0 0 0 0.08 0"/>
<feBlend mode="normal" in2="BackgroundImageFix" result="effect1_dropShadow_305_5786"/>
<feBlend mode="normal" in="SourceGraphic" in2="effect1_dropShadow_305_5786" result="shape"/>
</filter>
</defs>
</svg>
