<svg width="48" height="48" viewBox="0 0 48 48" fill="none" xmlns="http://www.w3.org/2000/svg">
<g filter="url(#filter0_d_305_5788)">
<rect x="8" y="4" width="32" height="32" rx="8" fill="white" shape-rendering="crispEdges"/>
<rect x="8.5" y="4.5" width="31" height="31" rx="7.5" stroke="#F6F6F6" shape-rendering="crispEdges"/>
<path d="M24 17.9997L28 21.9997M28 17.9997L24 21.9997M22.6667 15.333C22.3354 15.333 22.016 15.4564 21.7707 15.679L17.552 19.5057C17.4831 19.5682 17.4281 19.6444 17.3905 19.7294C17.3528 19.8144 17.3334 19.9064 17.3334 19.9993C17.3334 20.0923 17.3528 20.1843 17.3905 20.2693C17.4281 20.3543 17.4831 20.4305 17.552 20.493L21.7707 24.3203C22.016 24.543 22.3354 24.6663 22.6667 24.6663H29.3333C29.687 24.6663 30.0261 24.5259 30.2761 24.2758C30.5262 24.0258 30.6667 23.6866 30.6667 23.333V16.6663C30.6667 16.3127 30.5262 15.9736 30.2761 15.7235C30.0261 15.4735 29.687 15.333 29.3333 15.333H22.6667Z" stroke="#EA3232" stroke-linecap="round" stroke-linejoin="round"/>
</g>
<defs>
<filter id="filter0_d_305_5788" x="0" y="0" width="48" height="48" filterUnits="userSpaceOnUse" color-interpolation-filters="sRGB">
<feFlood flood-opacity="0" result="BackgroundImageFix"/>
<feColorMatrix in="SourceAlpha" type="matrix" values="0 0 0 0 0 0 0 0 0 0 0 0 0 0 0 0 0 0 127 0" result="hardAlpha"/>
<feOffset dy="4"/>
<feGaussianBlur stdDeviation="4"/>
<feComposite in2="hardAlpha" operator="out"/>
<feColorMatrix type="matrix" values="0 0 0 0 0 0 0 0 0 0 0 0 0 0 0 0 0 0 0.08 0"/>
<feBlend mode="normal" in2="BackgroundImageFix" result="effect1_dropShadow_305_5788"/>
<feBlend mode="normal" in="SourceGraphic" in2="effect1_dropShadow_305_5788" result="shape"/>
</filter>
</defs>
</svg>
