<svg width="48" height="48" viewBox="0 0 48 48" fill="none" xmlns="http://www.w3.org/2000/svg">
<g filter="url(#filter0_d_305_6142)">
<rect x="8" y="4" width="32" height="32" rx="8" fill="white" shape-rendering="crispEdges"/>
<rect x="8.5" y="4.5" width="31" height="31" rx="7.5" stroke="#F6F6F6" shape-rendering="crispEdges"/>
<path d="M30.6666 20.667V16.0003C30.6666 15.6467 30.5261 15.3076 30.2761 15.0575C30.026 14.8075 29.6869 14.667 29.3333 14.667H18.6666C18.313 14.667 17.9738 14.8075 17.7238 15.0575C17.4737 15.3076 17.3333 15.6467 17.3333 16.0003V24.0003C17.3333 24.7337 17.9333 25.3337 18.6666 25.3337H23.9999M30.6666 16.667L24.6866 20.467C24.4808 20.5959 24.2428 20.6643 23.9999 20.6643C23.757 20.6643 23.5191 20.5959 23.3133 20.467L17.3333 16.667M28.6666 22.667V26.667M26.6666 24.667H30.6666" stroke="#111827" stroke-linecap="round" stroke-linejoin="round"/>
</g>
<defs>
<filter id="filter0_d_305_6142" x="0" y="0" width="48" height="48" filterUnits="userSpaceOnUse" color-interpolation-filters="sRGB">
<feFlood flood-opacity="0" result="BackgroundImageFix"/>
<feColorMatrix in="SourceAlpha" type="matrix" values="0 0 0 0 0 0 0 0 0 0 0 0 0 0 0 0 0 0 127 0" result="hardAlpha"/>
<feOffset dy="4"/>
<feGaussianBlur stdDeviation="4"/>
<feComposite in2="hardAlpha" operator="out"/>
<feColorMatrix type="matrix" values="0 0 0 0 0 0 0 0 0 0 0 0 0 0 0 0 0 0 0.08 0"/>
<feBlend mode="normal" in2="BackgroundImageFix" result="effect1_dropShadow_305_6142"/>
<feBlend mode="normal" in="SourceGraphic" in2="effect1_dropShadow_305_6142" result="shape"/>
</filter>
</defs>
</svg>
