<svg width="64" height="64" viewBox="0 0 64 64" fill="none" xmlns="http://www.w3.org/2000/svg">
<g filter="url(#filter0_d_361_10438)">
<rect x="8" y="4" width="48" height="48" rx="8" fill="white" shape-rendering="crispEdges"/>
<path d="M25.8 27.3L22 38L32.7 34.21M24 19H24.01M42 24H42.01M35 18H35.01M42 36H42.01M42 18L39.76 18.75C39.1224 18.9624 38.5783 19.3896 38.2208 19.9587C37.8633 20.5278 37.7146 21.2034 37.8 21.87C37.9 22.73 37.23 23.5 36.35 23.5H35.97C35.11 23.5 34.37 24.1 34.21 24.94L34 26M42 28.9999L41.18 28.6699C40.32 28.3299 39.36 28.8699 39.2 29.7799C39.09 30.4799 38.48 30.9999 37.77 30.9999H37M31 18L31.33 18.82C31.67 19.68 31.13 20.64 30.22 20.8C29.52 20.9 29 21.52 29 22.23V23M31 29C32.93 30.93 33.83 33.17 33 34C32.17 34.83 29.93 33.93 28 32C26.07 30.07 25.17 27.83 26 27C26.83 26.17 29.07 27.07 31 29Z" stroke="#EA14D1" stroke-linecap="round" stroke-linejoin="round"/>
</g>
<defs>
<filter id="filter0_d_361_10438" x="0" y="0" width="64" height="64" filterUnits="userSpaceOnUse" color-interpolation-filters="sRGB">
<feFlood flood-opacity="0" result="BackgroundImageFix"/>
<feColorMatrix in="SourceAlpha" type="matrix" values="0 0 0 0 0 0 0 0 0 0 0 0 0 0 0 0 0 0 127 0" result="hardAlpha"/>
<feOffset dy="4"/>
<feGaussianBlur stdDeviation="4"/>
<feComposite in2="hardAlpha" operator="out"/>
<feColorMatrix type="matrix" values="0 0 0 0 0 0 0 0 0 0 0 0 0 0 0 0 0 0 0.08 0"/>
<feBlend mode="normal" in2="BackgroundImageFix" result="effect1_dropShadow_361_10438"/>
<feBlend mode="normal" in="SourceGraphic" in2="effect1_dropShadow_361_10438" result="shape"/>
</filter>
</defs>
</svg>
