<svg width="20" height="20" viewBox="0 0 20 20" fill="none" xmlns="http://www.w3.org/2000/svg">
<path d="M11.667 5.83366L14.167 8.33366M4.16695 5.00033V8.33366M15.8336 11.667V15.0003M8.33362 1.66699V3.33366M5.83362 6.66699H2.50028M17.5003 13.3337H14.167M9.16695 2.50033H7.50028M18.0337 3.0337L16.967 1.96703C16.8732 1.87229 16.7616 1.79709 16.6386 1.74576C16.5156 1.69444 16.3836 1.66801 16.2503 1.66801C16.117 1.66801 15.9851 1.69444 15.8621 1.74576C15.739 1.79709 15.6274 1.87229 15.5337 1.96703L1.96699 15.5337C1.87225 15.6275 1.79705 15.7391 1.74572 15.8621C1.6944 15.9851 1.66797 16.1171 1.66797 16.2504C1.66797 16.3837 1.6944 16.5156 1.74572 16.6386C1.79705 16.7617 1.87225 16.8733 1.96699 16.967L3.03366 18.0337C3.12684 18.1295 3.23827 18.2056 3.36136 18.2575C3.48445 18.3095 3.61671 18.3363 3.75032 18.3363C3.88394 18.3363 4.01619 18.3095 4.13929 18.2575C4.26238 18.2056 4.37381 18.1295 4.46699 18.0337L18.0337 4.46703C18.1294 4.37385 18.2055 4.26242 18.2575 4.13933C18.3095 4.01623 18.3362 3.88398 18.3362 3.75036C18.3362 3.61675 18.3095 3.48449 18.2575 3.3614C18.2055 3.23831 18.1294 3.12688 18.0337 3.0337Z" stroke="#111827" stroke-linecap="round" stroke-linejoin="round"/>
</svg>
