<svg width="40" height="40" viewBox="0 0 40 40" fill="none" xmlns="http://www.w3.org/2000/svg">
<rect width="40" height="40" rx="20" fill="white"/>
<path d="M21.667 15.8337L24.167 18.3337M14.167 15.0003V18.3337M25.8336 21.667V25.0003M18.3336 11.667V13.3337M15.8336 16.667H12.5003M27.5003 23.3337H24.167M19.167 12.5003H17.5003M28.0337 13.0337L26.967 11.967C26.8732 11.8723 26.7616 11.7971 26.6386 11.7458C26.5156 11.6944 26.3836 11.668 26.2503 11.668C26.117 11.668 25.9851 11.6944 25.8621 11.7458C25.739 11.7971 25.6274 11.8723 25.5337 11.967L11.967 25.5337C11.8723 25.6275 11.797 25.7391 11.7457 25.8621C11.6944 25.9851 11.668 26.1171 11.668 26.2504C11.668 26.3837 11.6944 26.5156 11.7457 26.6386C11.797 26.7617 11.8723 26.8733 11.967 26.967L13.0337 28.0337C13.1268 28.1295 13.2383 28.2056 13.3614 28.2575C13.4845 28.3095 13.6167 28.3363 13.7503 28.3363C13.8839 28.3363 14.0162 28.3095 14.1393 28.2575C14.2624 28.2056 14.3738 28.1295 14.467 28.0337L28.0337 14.467C28.1294 14.3738 28.2055 14.2624 28.2575 14.1393C28.3095 14.0162 28.3362 13.884 28.3362 13.7504C28.3362 13.6168 28.3095 13.4845 28.2575 13.3614C28.2055 13.2383 28.1294 13.1269 28.0337 13.0337Z" stroke="#111827" stroke-linecap="round" stroke-linejoin="round"/>
</svg>
