<svg width="20" height="20" viewBox="0 0 20 20" fill="none" xmlns="http://www.w3.org/2000/svg">
<path d="M5.00033 18.3327V3.33268C5.00033 2.89065 5.17592 2.46673 5.48848 2.15417C5.80104 1.84161 6.22496 1.66602 6.66699 1.66602H13.3337C13.7757 1.66602 14.1996 1.84161 14.5122 2.15417C14.8247 2.46673 15.0003 2.89065 15.0003 3.33268V18.3327M5.00033 18.3327H15.0003M5.00033 18.3327H3.33366C2.89163 18.3327 2.46771 18.1571 2.15515 17.8445C1.84259 17.532 1.66699 17.108 1.66699 16.666V11.666C1.66699 11.224 1.84259 10.8001 2.15515 10.4875C2.46771 10.1749 2.89163 9.99935 3.33366 9.99935H5.00033M15.0003 18.3327H16.667C17.109 18.3327 17.5329 18.1571 17.8455 17.8445C18.1581 17.532 18.3337 17.108 18.3337 16.666V9.16602C18.3337 8.72399 18.1581 8.30007 17.8455 7.9875C17.5329 7.67494 17.109 7.49935 16.667 7.49935H15.0003M8.33366 4.99935H11.667M8.33366 8.33268H11.667M8.33366 11.666H11.667M8.33366 14.9993H11.667" stroke="#F87B1B" stroke-linecap="round" stroke-linejoin="round"/>
</svg>
