<svg width="20" height="20" viewBox="0 0 20 20" fill="none" xmlns="http://www.w3.org/2000/svg">
<path d="M5.00033 18.3337V3.33366C5.00033 2.89163 5.17592 2.46771 5.48848 2.15515C5.80104 1.84259 6.22496 1.66699 6.66699 1.66699H13.3337C13.7757 1.66699 14.1996 1.84259 14.5122 2.15515C14.8247 2.46771 15.0003 2.89163 15.0003 3.33366V18.3337M5.00033 18.3337H15.0003M5.00033 18.3337H3.33366C2.89163 18.3337 2.46771 18.1581 2.15515 17.8455C1.84259 17.5329 1.66699 17.109 1.66699 16.667V11.667C1.66699 11.225 1.84259 10.801 2.15515 10.4885C2.46771 10.1759 2.89163 10.0003 3.33366 10.0003H5.00033M15.0003 18.3337H16.667C17.109 18.3337 17.5329 18.1581 17.8455 17.8455C18.1581 17.5329 18.3337 17.109 18.3337 16.667V9.16699C18.3337 8.72497 18.1581 8.30104 17.8455 7.98848C17.5329 7.67592 17.109 7.50033 16.667 7.50033H15.0003M8.33366 5.00033H11.667M8.33366 8.33366H11.667M8.33366 11.667H11.667M8.33366 15.0003H11.667" stroke="#111827" stroke-linecap="round" stroke-linejoin="round"/>
</svg>
