<svg width="20" height="20" viewBox="0 0 20 20" fill="none" xmlns="http://www.w3.org/2000/svg">
<path d="M11.6667 15.0003L15 18.3337M15 18.3337L18.3333 15.0003M15 18.3337V11.667M13.3333 1.66699V5.00033M17.5 9.46199V5.00033C17.5 4.5583 17.3244 4.13437 17.0118 3.82181C16.6993 3.50925 16.2754 3.33366 15.8333 3.33366H4.16667C3.72464 3.33366 3.30072 3.50925 2.98816 3.82181C2.67559 4.13437 2.5 4.5583 2.5 5.00033V16.667C2.5 17.109 2.67559 17.5329 2.98816 17.8455C3.30072 18.1581 3.72464 18.3337 4.16667 18.3337H10.2858M2.5 8.33366H17.5M6.66667 1.66699V5.00033" stroke="#F87B1B" stroke-linecap="round" stroke-linejoin="round"/>
</svg>
