<svg width="40" height="40" viewBox="0 0 40 40" fill="none" xmlns="http://www.w3.org/2000/svg">
<rect width="40" height="40" rx="20" fill="white"/>
<path d="M21.6667 25.0003L25 28.3337M25 28.3337L28.3333 25.0003M25 28.3337V21.667M23.3333 11.667V15.0003M27.5 19.462V15.0003C27.5 14.5583 27.3244 14.1344 27.0118 13.8218C26.6993 13.5093 26.2754 13.3337 25.8333 13.3337H14.1667C13.7246 13.3337 13.3007 13.5093 12.9882 13.8218C12.6756 14.1344 12.5 14.5583 12.5 15.0003V26.667C12.5 27.109 12.6756 27.5329 12.9882 27.8455C13.3007 28.1581 13.7246 28.3337 14.1667 28.3337H20.2858M12.5 18.3337H27.5M16.6667 11.667V15.0003" stroke="#111827" stroke-linecap="round" stroke-linejoin="round"/>
</svg>
