<svg width="52" height="52" viewBox="0 0 52 52" fill="none" xmlns="http://www.w3.org/2000/svg">
<g filter="url(#filter0_d_305_9086)">
<rect x="8" y="4" width="36" height="36" rx="8" fill="white" shape-rendering="crispEdges"/>
<path d="M18.5 14.5V27.8333C18.5 28.2754 18.6756 28.6993 18.9882 29.0118C19.3007 29.3244 19.7246 29.5 20.1667 29.5H33.5M22.6667 22.8333H28.5C28.9602 22.8333 29.3333 23.2064 29.3333 23.6667V25.3333C29.3333 25.7936 28.9602 26.1667 28.5 26.1667H22.6667C22.2064 26.1667 21.8333 25.7936 21.8333 25.3333V23.6667C21.8333 23.2064 22.2064 22.8333 22.6667 22.8333ZM22.6667 16.1667H31C31.4602 16.1667 31.8333 16.5398 31.8333 17V18.6667C31.8333 19.1269 31.4602 19.5 31 19.5H22.6667C22.2064 19.5 21.8333 19.1269 21.8333 18.6667V17C21.8333 16.5398 22.2064 16.1667 22.6667 16.1667Z" stroke="#F87B1B" stroke-linecap="round" stroke-linejoin="round"/>
</g>
<defs>
<filter id="filter0_d_305_9086" x="0" y="0" width="52" height="52" filterUnits="userSpaceOnUse" color-interpolation-filters="sRGB">
<feFlood flood-opacity="0" result="BackgroundImageFix"/>
<feColorMatrix in="SourceAlpha" type="matrix" values="0 0 0 0 0 0 0 0 0 0 0 0 0 0 0 0 0 0 127 0" result="hardAlpha"/>
<feOffset dy="4"/>
<feGaussianBlur stdDeviation="4"/>
<feComposite in2="hardAlpha" operator="out"/>
<feColorMatrix type="matrix" values="0 0 0 0 0 0 0 0 0 0 0 0 0 0 0 0 0 0 0.08 0"/>
<feBlend mode="normal" in2="BackgroundImageFix" result="effect1_dropShadow_305_9086"/>
<feBlend mode="normal" in="SourceGraphic" in2="effect1_dropShadow_305_9086" result="shape"/>
</filter>
</defs>
</svg>
