<svg width="52" height="52" viewBox="0 0 52 52" fill="none" xmlns="http://www.w3.org/2000/svg">
<g filter="url(#filter0_d_305_9068)">
<rect x="8" y="4" width="36" height="36" rx="8" fill="white" shape-rendering="crispEdges"/>
<path d="M26 24.4996L23.5 21.9996M26 24.4996C27.1641 24.0568 28.2808 23.4985 29.3334 22.8329M26 24.4996V28.6662C26 28.6662 28.525 28.2079 29.3334 26.9996C30.2334 25.6496 29.3334 22.8329 29.3334 22.8329M23.5 21.9996C23.9435 20.8491 24.5019 19.7463 25.1667 18.7079C26.1377 17.1554 27.4897 15.8771 29.0942 14.9946C30.6987 14.1122 32.5023 13.6549 34.3334 13.6662C34.3334 15.9329 33.6834 19.9162 29.3334 22.8329M23.5 21.9996L19.3334 21.9996C19.3334 21.9996 19.7917 19.4746 21 18.6662C22.35 17.7662 25.1667 18.6662 25.1667 18.6662M19.75 25.7496C18.5 26.7996 18.0834 29.9163 18.0834 29.9163C18.0834 29.9163 21.2 29.4996 22.25 28.2496C22.8417 27.5496 22.8334 26.4746 22.175 25.8246C21.8511 25.5155 21.4245 25.3368 20.9769 25.323C20.5293 25.3091 20.0924 25.4611 19.75 25.7496Z" stroke="#F87B1B" stroke-linecap="round" stroke-linejoin="round"/>
</g>
<defs>
<filter id="filter0_d_305_9068" x="0" y="0" width="52" height="52" filterUnits="userSpaceOnUse" color-interpolation-filters="sRGB">
<feFlood flood-opacity="0" result="BackgroundImageFix"/>
<feColorMatrix in="SourceAlpha" type="matrix" values="0 0 0 0 0 0 0 0 0 0 0 0 0 0 0 0 0 0 127 0" result="hardAlpha"/>
<feOffset dy="4"/>
<feGaussianBlur stdDeviation="4"/>
<feComposite in2="hardAlpha" operator="out"/>
<feColorMatrix type="matrix" values="0 0 0 0 0 0 0 0 0 0 0 0 0 0 0 0 0 0 0.08 0"/>
<feBlend mode="normal" in2="BackgroundImageFix" result="effect1_dropShadow_305_9068"/>
<feBlend mode="normal" in="SourceGraphic" in2="effect1_dropShadow_305_9068" result="shape"/>
</filter>
</defs>
</svg>
