<svg width="16" height="16" viewBox="0 0 16 16" fill="none" xmlns="http://www.w3.org/2000/svg">
<path d="M8.00004 5.99967L12 9.99967M12 5.99967L8.00004 9.99967M6.66667 3.33301C6.33539 3.33303 6.01598 3.45637 5.77067 3.67901L1.552 7.50567C1.48315 7.56816 1.42813 7.64437 1.39048 7.72938C1.35282 7.8144 1.33337 7.90636 1.33337 7.99934C1.33337 8.09232 1.35282 8.18428 1.39048 8.2693C1.42813 8.35432 1.48315 8.43052 1.552 8.49301L5.77067 12.3203C6.01598 12.543 6.33539 12.6663 6.66667 12.6663H13.3333C13.687 12.6663 14.0261 12.5259 14.2761 12.2758C14.5262 12.0258 14.6667 11.6866 14.6667 11.333V4.66634C14.6667 4.31272 14.5262 3.97358 14.2761 3.72353C14.0261 3.47348 13.687 3.33301 13.3333 3.33301H6.66667Z" stroke="#EA3232" stroke-linecap="round" stroke-linejoin="round"/>
</svg>
