<svg width="32" height="32" viewBox="0 0 32 32" fill="none" xmlns="http://www.w3.org/2000/svg">
<path d="M29.074 13.389H28V13.3337H16V18.667H23.5353C22.436 21.7717 19.482 24.0003 16 24.0003C11.582 24.0003 7.99996 20.4183 7.99996 16.0003C7.99996 11.5823 11.582 8.00033 16 8.00033C18.0393 8.00033 19.8946 8.76966 21.3073 10.0263L25.0786 6.25499C22.6973 4.03566 19.512 2.66699 16 2.66699C8.63663 2.66699 2.66663 8.63699 2.66663 16.0003C2.66663 23.3637 8.63663 29.3337 16 29.3337C23.3633 29.3337 29.3333 23.3637 29.3333 16.0003C29.3333 15.1063 29.2413 14.2337 29.074 13.389Z" fill="#FFC107"/>
<path d="M4.20447 9.79433L8.58513 13.007C9.77047 10.0723 12.6411 8.00033 16.0005 8.00033C18.0398 8.00033 19.8951 8.76966 21.3078 10.0263L25.0791 6.25499C22.6978 4.03566 19.5125 2.66699 16.0005 2.66699C10.8791 2.66699 6.4378 5.55833 4.20447 9.79433Z" fill="#FF3D00"/>
<path d="M16 29.3338C19.444 29.3338 22.5733 28.0158 24.9393 25.8725L20.8127 22.3805C19.4293 23.4332 17.7384 24.0023 16 24.0005C12.532 24.0005 9.58734 21.7891 8.478 18.7031L4.13 22.0531C6.33667 26.3711 10.818 29.3338 16 29.3338Z" fill="#1FC08D"/>
<path d="M29.074 13.3883H28V13.333H16V18.6663H23.5353C23.0095 20.1439 22.0622 21.4351 20.8107 22.3803L20.8127 22.379L24.9393 25.871C24.6473 26.1363 29.3333 22.6663 29.3333 15.9997C29.3333 15.1057 29.2413 14.233 29.074 13.3883Z" fill="#1976D2"/>
</svg>
