<svg width="64" height="64" viewBox="0 0 64 64" fill="none" xmlns="http://www.w3.org/2000/svg">
<g filter="url(#filter0_d_361_10430)">
<rect x="8" y="4" width="48" height="48" rx="8" fill="white" shape-rendering="crispEdges"/>
<path d="M33.2283 37.9253C31.1991 38.1764 29.1417 37.7995 27.3334 36.8453C25.525 35.8911 24.0526 34.4056 23.1145 32.5888C22.1765 30.772 21.8179 28.7113 22.0871 26.6845C22.3562 24.6576 23.2403 22.7619 24.62 21.253C25.9997 19.744 27.8089 18.6943 29.8036 18.2452C31.7984 17.7961 33.8828 17.9692 35.7761 18.7413C37.6694 19.5134 39.2805 20.8473 40.3923 22.5633C41.5042 24.2792 42.0633 26.2948 41.9943 28.3383M32.0002 22.0002V28.0002L33.5622 28.7812M34.0002 34.0002L38.0002 30.0002M38.0002 30.0002L42.0002 34.0002M38.0002 30.0002V38.0002" stroke="#13B7CD" stroke-linecap="round" stroke-linejoin="round"/>
</g>
<defs>
<filter id="filter0_d_361_10430" x="0" y="0" width="64" height="64" filterUnits="userSpaceOnUse" color-interpolation-filters="sRGB">
<feFlood flood-opacity="0" result="BackgroundImageFix"/>
<feColorMatrix in="SourceAlpha" type="matrix" values="0 0 0 0 0 0 0 0 0 0 0 0 0 0 0 0 0 0 127 0" result="hardAlpha"/>
<feOffset dy="4"/>
<feGaussianBlur stdDeviation="4"/>
<feComposite in2="hardAlpha" operator="out"/>
<feColorMatrix type="matrix" values="0 0 0 0 0 0 0 0 0 0 0 0 0 0 0 0 0 0 0.08 0"/>
<feBlend mode="normal" in2="BackgroundImageFix" result="effect1_dropShadow_361_10430"/>
<feBlend mode="normal" in="SourceGraphic" in2="effect1_dropShadow_361_10430" result="shape"/>
</filter>
</defs>
</svg>
