<svg width="20" height="20" viewBox="0 0 20 20" fill="none" xmlns="http://www.w3.org/2000/svg">
<path d="M13.3337 6.66699C14.6597 6.66699 15.9315 7.19378 16.8692 8.13146C17.8069 9.06914 18.3337 10.3409 18.3337 11.667V17.5003H15.0003V11.667C15.0003 11.225 14.8247 10.801 14.5122 10.4885C14.1996 10.1759 13.7757 10.0003 13.3337 10.0003C12.8916 10.0003 12.4677 10.1759 12.1551 10.4885C11.8426 10.801 11.667 11.225 11.667 11.667V17.5003H8.33366V11.667C8.33366 10.3409 8.86044 9.06914 9.79813 8.13146C10.7358 7.19378 12.0076 6.66699 13.3337 6.66699Z" stroke="#F87B1B" stroke-linecap="round" stroke-linejoin="round"/>
<path d="M5.00033 7.50033H1.66699V17.5003H5.00033V7.50033Z" stroke="#F87B1B" stroke-linecap="round" stroke-linejoin="round"/>
<path d="M3.33366 5.00033C4.25413 5.00033 5.00033 4.25413 5.00033 3.33366C5.00033 2.41318 4.25413 1.66699 3.33366 1.66699C2.41318 1.66699 1.66699 2.41318 1.66699 3.33366C1.66699 4.25413 2.41318 5.00033 3.33366 5.00033Z" stroke="#F87B1B" stroke-linecap="round" stroke-linejoin="round"/>
</svg>
