<svg width="20" height="20" viewBox="0 0 20 20" fill="none" xmlns="http://www.w3.org/2000/svg">
<path d="M16.6663 8.33366C16.6663 12.4945 12.0505 16.8278 10.5005 18.1662C10.3561 18.2747 10.1803 18.3335 9.99967 18.3335C9.81901 18.3335 9.64324 18.2747 9.49884 18.1662C7.94884 16.8278 3.33301 12.4945 3.33301 8.33366C3.33301 6.56555 4.03539 4.86986 5.28563 3.61961C6.53587 2.36937 8.23156 1.66699 9.99967 1.66699C11.7678 1.66699 13.4635 2.36937 14.7137 3.61961C15.964 4.86986 16.6663 6.56555 16.6663 8.33366Z" stroke="#111827" stroke-linecap="round" stroke-linejoin="round"/>
<path d="M9.99967 10.8337C11.3804 10.8337 12.4997 9.71437 12.4997 8.33366C12.4997 6.95295 11.3804 5.83366 9.99967 5.83366C8.61896 5.83366 7.49967 6.95295 7.49967 8.33366C7.49967 9.71437 8.61896 10.8337 9.99967 10.8337Z" stroke="#111827" stroke-linecap="round" stroke-linejoin="round"/>
</svg>
