<svg width="20" height="20" viewBox="0 0 20 20" fill="none" xmlns="http://www.w3.org/2000/svg">
<path d="M18.3333 10.833V4.99967C18.3333 4.55765 18.1577 4.13372 17.8451 3.82116C17.5326 3.5086 17.1087 3.33301 16.6666 3.33301H3.33329C2.89127 3.33301 2.46734 3.5086 2.15478 3.82116C1.84222 4.13372 1.66663 4.55765 1.66663 4.99967V14.9997C1.66663 15.9163 2.41663 16.6663 3.33329 16.6663H9.99996M18.3333 5.83301L10.8583 10.583C10.601 10.7442 10.3036 10.8297 9.99996 10.8297C9.69636 10.8297 9.3989 10.7442 9.14163 10.583L1.66663 5.83301M15.8333 13.333V18.333M13.3333 15.833H18.3333" stroke="#F87B1B" stroke-linecap="round" stroke-linejoin="round"/>
</svg>
