<svg width="16" height="16" viewBox="0 0 16 16" fill="none" xmlns="http://www.w3.org/2000/svg">
<path d="M14.6667 8.66699V4.00033C14.6667 3.6467 14.5262 3.30756 14.2762 3.05752C14.0261 2.80747 13.687 2.66699 13.3334 2.66699H2.66671C2.31309 2.66699 1.97395 2.80747 1.7239 3.05752C1.47385 3.30756 1.33337 3.6467 1.33337 4.00033V12.0003C1.33337 12.7337 1.93337 13.3337 2.66671 13.3337H8.00004M14.6667 4.66699L8.68671 8.46699C8.48089 8.59594 8.24292 8.66433 8.00004 8.66433C7.75716 8.66433 7.51919 8.59594 7.31337 8.46699L1.33337 4.66699M12.6667 10.667V14.667M10.6667 12.667H14.6667" stroke="#111827" stroke-linecap="round" stroke-linejoin="round"/>
</svg>
