<svg width="20" height="20" viewBox="0 0 20 20" fill="none" xmlns="http://www.w3.org/2000/svg">
<path d="M18.3337 10.833V4.99967C18.3337 4.55765 18.1581 4.13372 17.8455 3.82116C17.5329 3.5086 17.109 3.33301 16.667 3.33301H3.33366C2.89163 3.33301 2.46771 3.5086 2.15515 3.82116C1.84259 4.13372 1.66699 4.55765 1.66699 4.99967V14.9997C1.66699 15.9163 2.41699 16.6663 3.33366 16.6663H10.0003M18.3337 5.83301L10.8587 10.583C10.6014 10.7442 10.3039 10.8297 10.0003 10.8297C9.69673 10.8297 9.39927 10.7442 9.14199 10.583L1.66699 5.83301M15.8337 13.333V18.333M13.3337 15.833H18.3337" stroke="#111827" stroke-linecap="round" stroke-linejoin="round"/>
</svg>
