<svg width="52" height="52" viewBox="0 0 52 52" fill="none" xmlns="http://www.w3.org/2000/svg">
<g filter="url(#filter0_d_305_8132)">
<rect x="8" y="4" width="36" height="36" rx="8" fill="white" shape-rendering="crispEdges"/>
<rect x="8.5" y="4.5" width="35" height="35" rx="7.5" stroke="#F6F6F6" shape-rendering="crispEdges"/>
<path d="M27.6667 27.0003L31 30.3337M31 30.3337L34.3333 27.0003M31 30.3337V23.667M29.3333 13.667V17.0003M33.5 21.462V17.0003C33.5 16.5583 33.3244 16.1344 33.0118 15.8218C32.6993 15.5093 32.2754 15.3337 31.8333 15.3337H20.1667C19.7246 15.3337 19.3007 15.5093 18.9882 15.8218C18.6756 16.1344 18.5 16.5583 18.5 17.0003V28.667C18.5 29.109 18.6756 29.5329 18.9882 29.8455C19.3007 30.1581 19.7246 30.3337 20.1667 30.3337H26.2858M18.5 20.3337H33.5M22.6667 13.667V17.0003" stroke="#111827" stroke-linecap="round" stroke-linejoin="round"/>
</g>
<defs>
<filter id="filter0_d_305_8132" x="0" y="0" width="52" height="52" filterUnits="userSpaceOnUse" color-interpolation-filters="sRGB">
<feFlood flood-opacity="0" result="BackgroundImageFix"/>
<feColorMatrix in="SourceAlpha" type="matrix" values="0 0 0 0 0 0 0 0 0 0 0 0 0 0 0 0 0 0 127 0" result="hardAlpha"/>
<feOffset dy="4"/>
<feGaussianBlur stdDeviation="4"/>
<feComposite in2="hardAlpha" operator="out"/>
<feColorMatrix type="matrix" values="0 0 0 0 0 0 0 0 0 0 0 0 0 0 0 0 0 0 0.08 0"/>
<feBlend mode="normal" in2="BackgroundImageFix" result="effect1_dropShadow_305_8132"/>
<feBlend mode="normal" in="SourceGraphic" in2="effect1_dropShadow_305_8132" result="shape"/>
</filter>
</defs>
</svg>
