<svg width="14" height="14" viewBox="0 0 14 14" fill="none" xmlns="http://www.w3.org/2000/svg">
<path d="M7.00033 7.58301C7.32249 7.58301 7.58366 7.32184 7.58366 6.99967C7.58366 6.67751 7.32249 6.41634 7.00033 6.41634C6.67816 6.41634 6.41699 6.67751 6.41699 6.99967C6.41699 7.32184 6.67816 7.58301 7.00033 7.58301Z" fill="#70747D"/>
<path d="M7.00033 3.49967C7.32249 3.49967 7.58366 3.23851 7.58366 2.91634C7.58366 2.59418 7.32249 2.33301 7.00033 2.33301C6.67816 2.33301 6.41699 2.59418 6.41699 2.91634C6.41699 3.23851 6.67816 3.49967 7.00033 3.49967Z" fill="#70747D"/>
<path d="M7.00033 11.6663C7.32249 11.6663 7.58366 11.4052 7.58366 11.083C7.58366 10.7608 7.32249 10.4997 7.00033 10.4997C6.67816 10.4997 6.41699 10.7608 6.41699 11.083C6.41699 11.4052 6.67816 11.6663 7.00033 11.6663Z" fill="#70747D"/>
<path d="M7.00033 7.58301C7.32249 7.58301 7.58366 7.32184 7.58366 6.99967C7.58366 6.67751 7.32249 6.41634 7.00033 6.41634C6.67816 6.41634 6.41699 6.67751 6.41699 6.99967C6.41699 7.32184 6.67816 7.58301 7.00033 7.58301Z" stroke="#70747D" stroke-linecap="round" stroke-linejoin="round"/>
<path d="M7.00033 3.49967C7.32249 3.49967 7.58366 3.23851 7.58366 2.91634C7.58366 2.59418 7.32249 2.33301 7.00033 2.33301C6.67816 2.33301 6.41699 2.59418 6.41699 2.91634C6.41699 3.23851 6.67816 3.49967 7.00033 3.49967Z" stroke="#70747D" stroke-linecap="round" stroke-linejoin="round"/>
<path d="M7.00033 11.6663C7.32249 11.6663 7.58366 11.4052 7.58366 11.083C7.58366 10.7608 7.32249 10.4997 7.00033 10.4997C6.67816 10.4997 6.41699 10.7608 6.41699 11.083C6.41699 11.4052 6.67816 11.6663 7.00033 11.6663Z" stroke="#70747D" stroke-linecap="round" stroke-linejoin="round"/>
</svg>
