<svg width="64" height="64" viewBox="0 0 64 64" fill="none" xmlns="http://www.w3.org/2000/svg">
<g filter="url(#filter0_d_361_10422)">
<rect x="8" y="4" width="48" height="48" rx="8" fill="white" shape-rendering="crispEdges"/>
<path d="M24 38H40C40.5304 38 41.0391 37.7893 41.4142 37.4142C41.7893 37.0391 42 36.5304 42 36V20C42 19.4696 41.7893 18.9609 41.4142 18.5858C41.0391 18.2107 40.5304 18 40 18H28C27.4696 18 26.9609 18.2107 26.5858 18.5858C26.2107 18.9609 26 19.4696 26 20V36C26 36.5304 25.7893 37.0391 25.4142 37.4142C25.0391 37.7893 24.5304 38 24 38ZM24 38C23.4696 38 22.9609 37.7893 22.5858 37.4142C22.2107 37.0391 22 36.5304 22 36V27C22 25.9 22.9 25 24 25H26M38 30H30M35 34H30M30 22H38V26H30V22Z" stroke="#E28413" stroke-linecap="round" stroke-linejoin="round"/>
</g>
<defs>
<filter id="filter0_d_361_10422" x="0" y="0" width="64" height="64" filterUnits="userSpaceOnUse" color-interpolation-filters="sRGB">
<feFlood flood-opacity="0" result="BackgroundImageFix"/>
<feColorMatrix in="SourceAlpha" type="matrix" values="0 0 0 0 0 0 0 0 0 0 0 0 0 0 0 0 0 0 127 0" result="hardAlpha"/>
<feOffset dy="4"/>
<feGaussianBlur stdDeviation="4"/>
<feComposite in2="hardAlpha" operator="out"/>
<feColorMatrix type="matrix" values="0 0 0 0 0 0 0 0 0 0 0 0 0 0 0 0 0 0 0.08 0"/>
<feBlend mode="normal" in2="BackgroundImageFix" result="effect1_dropShadow_361_10422"/>
<feBlend mode="normal" in="SourceGraphic" in2="effect1_dropShadow_361_10422" result="shape"/>
</filter>
</defs>
</svg>
