<svg width="81" height="59" viewBox="0 0 81 59" fill="none" xmlns="http://www.w3.org/2000/svg">
<path d="M24.1217 27V33.6958H23.7725C21.9058 33.6958 20.0392 33.6958 18.1726 33.6958C15.752 33.6958 13.3314 33.6837 10.9108 33.6837C7.599 33.6837 4.27519 33.6958 0.963422 33.6958C0.73461 33.6958 0.493755 33.6837 0.264943 33.7078C0.0602154 33.7199 0 33.6596 0 33.4549C0.0120428 32.7564 0 32.0579 0 31.3715C0 25.4705 0 19.5816 0 13.6806C0 11.9465 0.0120443 10.2123 0.024087 8.47813C0.024087 8.40588 0.0240863 8.34566 0.0120435 8.27341V1.74621C0.0240863 1.68599 0.0240878 1.62578 0.0361305 1.55352C0.0843017 0.939339 0.373328 0.445584 0.939339 0.180642C1.20428 0.060214 1.52943 0.0120428 1.81846 0C4.78098 0.0120428 7.73147 0.0120428 10.6819 0.0120428H23.917V6.51516C23.8808 6.5272 23.8447 6.53924 23.7965 6.53924C18.57 6.55129 13.3314 6.55129 8.10479 6.56333C7.74351 6.56333 7.38223 6.55129 7.02094 6.55129C6.88847 6.55129 6.81621 6.58741 6.81621 6.74397C6.81621 8.9478 6.81622 11.1396 6.82826 13.3434C6.82826 13.3555 6.8403 13.3675 6.86438 13.4398H22.0022V19.967C21.8215 19.967 21.6529 19.967 21.4964 19.967C20.5089 19.9549 19.5213 19.9429 18.5459 19.9429C14.7765 19.9429 11.0191 19.9429 7.24976 19.9429C7.1775 19.9429 7.10524 19.9429 7.03299 19.9429C6.90052 19.9429 6.8403 19.9911 6.85234 20.1476C6.85234 22.2551 6.85234 24.3746 6.85234 26.4821C6.85234 27.1084 6.79213 27 7.38223 27C12.9339 27 18.4857 27 24.0374 27C24.0374 26.9879 24.0735 27 24.1217 27Z" fill="#90191C"/>
<path d="M33.6239 24.3987V19.3889H29.2524V24.3987H26.2056V12.4884H29.2524V16.9322H33.6239V12.4884H36.6707V24.3987H33.6239Z" fill="#90191C"/>
<path d="M49.0867 18.4135C49.0867 19.2806 48.9663 20.0874 48.7375 20.8461C48.5087 21.6048 48.1474 22.2551 47.6657 22.8211C47.184 23.3751 46.5698 23.8207 45.8111 24.1338C45.0524 24.4469 44.1612 24.6035 43.1376 24.6035C42.114 24.6035 41.1626 24.4349 40.4039 24.1097C39.6452 23.7846 39.031 23.339 38.5493 22.773C38.0676 22.219 37.7063 21.5566 37.4895 20.822C37.2607 20.0754 37.1523 19.2926 37.1523 18.4616C37.1523 17.5584 37.2728 16.7275 37.5257 15.9688C37.7786 15.2101 38.1519 14.5598 38.6457 14.0179C39.1394 13.4759 39.7536 13.0544 40.4882 12.7413C41.2228 12.4282 42.0778 12.2837 43.0533 12.2837C44.1131 12.2837 45.0283 12.4402 45.787 12.7534C46.5457 13.0665 47.1719 13.5 47.6657 14.054C48.1594 14.608 48.5207 15.2583 48.7495 16.0049C48.9663 16.7636 49.0867 17.5584 49.0867 18.4135ZM45.9917 18.3894C45.9917 18.269 45.9917 18.0883 45.9797 17.8595C45.9677 17.6307 45.9436 17.3778 45.8834 17.1129C45.8231 16.8479 45.7388 16.5589 45.6305 16.2699C45.51 15.9808 45.3535 15.7159 45.1367 15.4871C44.9199 15.2583 44.655 15.0656 44.3178 14.909C43.9806 14.7525 43.5711 14.6802 43.0894 14.6802C42.415 14.6802 41.8852 14.8247 41.4998 15.1137C41.1144 15.4028 40.8374 15.752 40.6448 16.1494C40.4521 16.5589 40.3437 16.9683 40.2955 17.3898C40.2473 17.8113 40.2353 18.1606 40.2353 18.4255C40.2353 19.1601 40.3196 19.7623 40.5002 20.244C40.6809 20.7257 40.9097 21.099 41.1867 21.388C41.4637 21.6771 41.7768 21.8818 42.114 21.9902C42.4512 22.1106 42.7763 22.1588 43.1015 22.1588C43.3905 22.1588 43.7157 22.1106 44.0649 22.0022C44.4262 21.8938 44.7634 21.6891 45.0765 21.364C45.3294 21.1111 45.5462 20.7618 45.7268 20.3042C45.8954 19.8827 45.9797 19.2324 45.9917 18.3894Z" fill="#90191C"/>
<path d="M59.9852 20.1716C59.9732 20.557 59.9129 20.9424 59.8166 21.3518C59.7203 21.7613 59.5757 22.1587 59.371 22.5441C59.1663 22.9294 58.8893 23.2787 58.516 23.5797C58.1426 23.8808 57.673 24.1337 57.0949 24.3144C56.5169 24.507 55.8184 24.6034 54.9874 24.6034C54.5178 24.6034 54.0601 24.5793 53.6025 24.5311C53.1449 24.4829 52.7114 24.3986 52.2899 24.2421C51.8684 24.0976 51.4709 23.8929 51.1217 23.6159C50.7604 23.3389 50.4473 22.9776 50.1583 22.5079C50.0017 22.243 49.8813 21.9419 49.797 21.6047C49.7127 21.2675 49.6525 20.9424 49.6043 20.6293C49.5561 20.3041 49.5321 20.0151 49.5321 19.7622C49.5321 19.5093 49.52 19.3286 49.52 19.2082V12.4642H52.5668V19.3407C52.5668 19.6056 52.5789 19.9067 52.603 20.2318C52.6271 20.557 52.6993 20.8701 52.8438 21.1591C52.9883 21.4482 53.2051 21.689 53.5062 21.8817C53.8072 22.0744 54.2408 22.1707 54.7948 22.1707C55.3487 22.1707 55.7341 22.0744 56.0231 21.8817C56.3121 21.689 56.5289 21.4602 56.6614 21.1832C56.7939 20.9062 56.8782 20.6052 56.9022 20.28C56.9263 19.9549 56.9384 19.6658 56.9384 19.4009V12.4642H59.9852V19.16C60.0213 19.4491 60.0093 19.7863 59.9852 20.1716Z" fill="#90191C"/>
<path d="M70.6675 20.7136C70.6675 20.834 70.6555 21.0146 70.6314 21.2555C70.6073 21.4964 70.535 21.7613 70.4267 22.0503C70.3183 22.3394 70.1497 22.6404 69.9449 22.9415C69.7402 23.2426 69.4392 23.5195 69.0779 23.7604C68.7045 24.0013 68.2469 24.206 67.693 24.3625C67.139 24.5191 66.4766 24.6034 65.7059 24.6034C65.3446 24.6034 64.9713 24.5793 64.5618 24.5311C64.1524 24.483 63.7429 24.3987 63.3335 24.2782C62.924 24.1578 62.5266 23.9772 62.1653 23.7484C61.792 23.5195 61.4789 23.2185 61.2019 22.8451C60.8888 22.4116 60.6961 22.0022 60.6118 21.6168C60.5275 21.2314 60.4673 20.8581 60.4312 20.4968L63.3576 20.28C63.3937 20.4486 63.4418 20.6534 63.5021 20.8822C63.5623 21.123 63.6827 21.3518 63.8393 21.5807C64.0079 21.8095 64.2367 22.0022 64.5257 22.1587C64.8147 22.3153 65.2001 22.3875 65.6818 22.3875C66.2719 22.3875 66.7536 22.2551 67.1269 22.0022C67.5003 21.7493 67.6809 21.4 67.6809 20.9665C67.6809 20.7256 67.6327 20.5209 67.5244 20.3643C67.416 20.2078 67.2474 20.0633 67.0186 19.9549C66.7897 19.8465 66.4766 19.7381 66.1153 19.6418C65.742 19.5454 65.2964 19.437 64.7545 19.3046C64.4775 19.2323 64.1162 19.136 63.6827 18.9915C63.2492 18.859 62.8156 18.6543 62.4062 18.3893C61.9847 18.1244 61.6234 17.7751 61.3223 17.3295C61.0213 16.896 60.8647 16.342 60.8647 15.6676C60.8647 15.0414 61.0092 14.5236 61.2862 14.09C61.5632 13.6565 61.9365 13.3193 62.37 13.0544C62.8036 12.7894 63.3094 12.5967 63.8633 12.4763C64.4173 12.3559 64.9592 12.2957 65.5012 12.2957C66.2237 12.2957 66.8379 12.3559 67.3558 12.4763C67.8736 12.5967 68.3071 12.7653 68.6564 12.9701C69.0056 13.1748 69.2826 13.4036 69.4873 13.6565C69.6921 13.9094 69.8486 14.1743 69.969 14.4272C70.0895 14.6922 70.1617 14.9451 70.2099 15.198C70.2581 15.4509 70.2821 15.6797 70.3062 15.8603L67.3558 16.0048C67.3196 15.8483 67.2835 15.6797 67.2353 15.487C67.1872 15.2943 67.0908 15.1257 66.9583 14.9571C66.8259 14.7885 66.6332 14.656 66.3923 14.5356C66.1515 14.4272 65.8263 14.367 65.4289 14.367C65.2121 14.367 64.9954 14.3911 64.7906 14.4272C64.5859 14.4634 64.4053 14.5236 64.2367 14.6199C64.0801 14.7042 63.9476 14.8126 63.8513 14.9451C63.755 15.0775 63.7068 15.2341 63.7068 15.4147C63.7068 15.6195 63.767 15.776 63.8874 15.9085C64.0079 16.041 64.1765 16.1614 64.3932 16.2577C64.61 16.3541 64.887 16.4504 65.2121 16.5347C65.5373 16.619 65.9227 16.7033 66.3562 16.8117C66.7416 16.896 67.1872 17.0164 67.693 17.1609C68.1988 17.3055 68.6684 17.5222 69.114 17.7992C69.5596 18.0882 69.9329 18.4495 70.234 18.9192C70.511 19.3889 70.6675 19.991 70.6675 20.7136Z" fill="#90191C"/>
<path d="M71.1484 24.3987V12.4884H80.5057V14.7645H74.1953V17.0406H80.0481V19.2565H74.1953V22.0504H80.6984V24.3987H71.1484Z" fill="#90191C"/>
<path d="M27.6988 28.0354V29.4204H30.3964V30.6608H27.6988V33.4427H25.9888V26.7589H30.83V28.0354H27.6988Z" fill="#90191C"/>
<path d="M37.6336 31.0583C37.6215 31.275 37.5974 31.4918 37.5372 31.7206C37.489 31.9494 37.4047 32.1662 37.2964 32.383C37.188 32.5997 37.0194 32.7924 36.8146 32.961C36.6099 33.1296 36.345 33.2741 36.0198 33.3825C35.6947 33.4909 35.3093 33.5391 34.8396 33.5391C34.5747 33.5391 34.3218 33.527 34.0689 33.503C33.816 33.4789 33.5631 33.4307 33.3343 33.3464C33.1055 33.2621 32.8767 33.1537 32.6719 32.9972C32.4672 32.8406 32.2866 32.6359 32.13 32.383C32.0457 32.2385 31.9734 32.0699 31.9253 31.8772C31.8771 31.6965 31.841 31.5039 31.8169 31.3232C31.7928 31.1426 31.7808 30.986 31.7808 30.8415C31.7808 30.697 31.7808 30.6006 31.7808 30.5284V26.7469H33.4908V30.6006C33.4908 30.7452 33.4908 30.9138 33.5149 31.0944C33.527 31.275 33.5751 31.4557 33.6474 31.6122C33.7317 31.7688 33.8521 31.9133 34.0207 32.0217C34.1893 32.1301 34.4302 32.1903 34.7433 32.1903C35.0564 32.1903 35.2732 32.1421 35.4297 32.0337C35.5863 31.9254 35.7067 31.7929 35.791 31.6484C35.8753 31.4918 35.9114 31.3232 35.9235 31.1426C35.9355 30.9619 35.9476 30.7933 35.9476 30.6488V26.759H37.6576V30.5043C37.6456 30.6609 37.6456 30.8535 37.6336 31.0583Z" fill="#90191C"/>
<path d="M43.1735 33.4427L42.1378 31.6965C42.0053 31.4557 41.8849 31.275 41.7765 31.1426C41.6681 31.0101 41.5718 30.9138 41.4634 30.8415C41.355 30.7692 41.2587 30.7331 41.1503 30.709C41.0419 30.6849 40.9215 30.6849 40.789 30.6849H40.5602V33.4307H38.8501V26.7469H41.9812C42.21 26.7469 42.4629 26.759 42.7399 26.771C43.0169 26.7831 43.2818 26.8433 43.5106 26.9276C43.7154 26.9998 43.884 27.1082 44.0285 27.2407C44.173 27.3732 44.2814 27.5177 44.3657 27.6742C44.45 27.8308 44.5102 27.9874 44.5463 28.156C44.5825 28.3246 44.5945 28.4691 44.5945 28.6136C44.5945 28.8665 44.5584 29.0953 44.4982 29.2759C44.4259 29.4686 44.3416 29.6252 44.2332 29.7576C44.1248 29.8901 44.0044 29.9985 43.884 30.0948C43.7636 30.1912 43.619 30.2514 43.4986 30.2996C43.3661 30.3477 43.2577 30.3959 43.1494 30.408C43.053 30.432 42.9687 30.4441 42.9085 30.4561C42.9808 30.4923 43.0651 30.5404 43.1614 30.6006C43.2578 30.6609 43.3661 30.7331 43.4745 30.8295C43.5949 30.9258 43.7154 31.0462 43.8358 31.2028C43.9562 31.3593 44.0887 31.552 44.2212 31.7808L45.1244 33.4066L43.1735 33.4427ZM42.8844 28.7461C42.8844 28.5534 42.8483 28.4089 42.764 28.3125C42.6797 28.2162 42.5834 28.1319 42.4509 28.0837C42.3305 28.0355 42.1859 28.0114 42.0294 27.9994C41.8728 27.9874 41.7163 27.9874 41.5597 27.9874H40.5843V29.5168H41.5236C41.6801 29.5168 41.8367 29.5168 42.0053 29.5047C42.1739 29.4927 42.3184 29.4686 42.4509 29.4204C42.5834 29.3723 42.6917 29.288 42.776 29.1916C42.8603 29.0953 42.8844 28.9267 42.8844 28.7461Z" fill="#90191C"/>
<path d="M49.8935 33.4427L47.3164 29.4324L47.2923 33.4427H45.7026V26.7589H47.3164L49.9297 30.8414L49.9537 26.7589H51.5434V33.4427H49.8935Z" fill="#90191C"/>
<path d="M52.7837 33.4427V26.7589H54.4938V33.4427H52.7837Z" fill="#90191C"/>
<path d="M58.9732 28.1438V33.4427H57.2631V28.1438H55.2158V26.7589H61.0084V28.1438H58.9732Z" fill="#90191C"/>
<path d="M67.6082 31.0583C67.5961 31.275 67.572 31.4918 67.5118 31.7206C67.4637 31.9494 67.3794 32.1662 67.271 32.383C67.1626 32.5997 66.994 32.7924 66.7893 32.961C66.5845 33.1296 66.3196 33.2741 65.9944 33.3825C65.6693 33.4909 65.2839 33.5391 64.8142 33.5391C64.5493 33.5391 64.2964 33.527 64.0435 33.503C63.7906 33.4789 63.5377 33.4307 63.3089 33.3464C63.0801 33.2621 62.8513 33.1537 62.6465 32.9972C62.4418 32.8406 62.2612 32.6359 62.1046 32.383C62.0203 32.2385 61.9481 32.0699 61.8999 31.8772C61.8517 31.6965 61.8156 31.5039 61.7915 31.3232C61.7674 31.1426 61.7554 30.986 61.7554 30.8415C61.7554 30.697 61.7554 30.6006 61.7554 30.5284V26.7469H63.4654V30.6006C63.4654 30.7452 63.4654 30.9138 63.4895 31.0944C63.5016 31.275 63.5497 31.4557 63.622 31.6122C63.7063 31.7688 63.8267 31.9133 63.9953 32.0217C64.1639 32.1301 64.4048 32.1903 64.7179 32.1903C65.031 32.1903 65.2478 32.1421 65.4043 32.0337C65.5609 31.9254 65.6813 31.7929 65.7656 31.6484C65.8499 31.4918 65.886 31.3232 65.8981 31.1426C65.9101 30.9619 65.9222 30.7933 65.9222 30.6488V26.759H67.6323V30.5043C67.6202 30.6609 67.6082 30.8535 67.6082 31.0583Z" fill="#90191C"/>
<path d="M73.1481 33.4427L72.1124 31.6965C71.9799 31.4557 71.8595 31.275 71.7511 31.1426C71.6427 31.0101 71.5464 30.9138 71.438 30.8415C71.3296 30.7692 71.2333 30.7331 71.1249 30.709C71.0165 30.6849 70.8961 30.6849 70.7636 30.6849H70.5348V33.4307H68.8247V26.7469H71.9558C72.1846 26.7469 72.4375 26.759 72.7145 26.771C72.9915 26.7831 73.2565 26.8433 73.4853 26.9276C73.69 26.9998 73.8586 27.1082 74.0031 27.2407C74.1476 27.3732 74.256 27.5177 74.3403 27.6742C74.4246 27.8308 74.4848 27.9874 74.5209 28.156C74.5571 28.3246 74.5691 28.4691 74.5691 28.6136C74.5691 28.8665 74.533 29.0953 74.4728 29.2759C74.4005 29.4686 74.3162 29.6252 74.2078 29.7576C74.0994 29.8901 73.979 29.9985 73.8586 30.0948C73.7382 30.1912 73.5937 30.2514 73.4732 30.2996C73.3408 30.3477 73.2324 30.3959 73.124 30.408C73.0276 30.432 72.9433 30.4441 72.8831 30.4561C72.9554 30.4923 73.0397 30.5404 73.136 30.6006C73.2324 30.6609 73.3408 30.7331 73.4491 30.8295C73.5696 30.9258 73.69 31.0462 73.8104 31.2028C73.9308 31.3593 74.0633 31.552 74.1958 31.7808L75.099 33.4066L73.1481 33.4427ZM72.847 28.7461C72.847 28.5534 72.8109 28.4089 72.7266 28.3125C72.6423 28.2162 72.5459 28.1319 72.4135 28.0837C72.293 28.0355 72.1485 28.0114 71.992 27.9994C71.8354 27.9874 71.6788 27.9874 71.5223 27.9874H70.5468V29.5168H71.4862C71.6427 29.5168 71.7993 29.5168 71.9679 29.5047C72.1365 29.4927 72.281 29.4686 72.4135 29.4204C72.5459 29.3723 72.6543 29.288 72.7386 29.1916C72.8229 29.0953 72.847 28.9267 72.847 28.7461Z" fill="#90191C"/>
<path d="M75.6528 33.4427V26.7589H80.8914V28.0354H77.3509V29.312H80.6385V30.5524H77.3509V32.118H80.9998V33.4306L75.6528 33.4427Z" fill="#90191C"/>
<path d="M11.3205 57.8535H7.10557L4.51637 42.5471V57.8535H0.0244141V36.6221H7.16578L9.1408 47.7014L11.1038 36.6221H18.3174V57.8535H13.7532V42.5351L11.3205 57.8535Z" fill="#90191C"/>
<path d="M20.0752 52.1212V42.0053C20.0752 40.235 20.5569 38.8621 21.5083 37.8987C22.4597 36.9232 23.9048 36.4294 25.8196 36.3933C27.7946 36.4174 29.2518 36.9232 30.2152 37.8987C31.1666 38.8741 31.6483 40.247 31.6483 42.0053V52.1212C31.6483 52.9883 31.5399 53.7711 31.3232 54.4696C31.1064 55.168 30.7692 55.8063 30.3356 56.3603C29.8901 56.9142 29.2879 57.3357 28.5292 57.6368C27.7705 57.9379 26.8914 58.0704 25.9159 58.0463C24.8803 58.0704 23.9771 57.9379 23.2184 57.6368C22.4597 57.3357 21.8575 56.9142 21.4119 56.3603C20.9664 55.8063 20.6412 55.1801 20.4244 54.4696C20.1836 53.7711 20.0752 52.9883 20.0752 52.1212ZM25.8557 53.8915C26.0243 53.8915 26.1688 53.8554 26.3013 53.7952C26.4338 53.7349 26.5301 53.6266 26.6024 53.4941C26.6746 53.3616 26.7349 53.2291 26.783 53.0967C26.8312 52.9642 26.8553 52.8077 26.8794 52.6029C26.9035 52.3982 26.9035 52.2296 26.9155 52.1212C26.9155 52.0128 26.9275 51.8563 26.9275 51.6636V43.0289C26.9275 42.9807 26.9275 42.8723 26.9396 42.7037C26.9396 42.5472 26.9396 42.4268 26.9396 42.3425C26.9396 42.2582 26.9275 42.1498 26.9275 41.9932C26.9275 41.8367 26.9034 41.7162 26.8914 41.6319C26.8673 41.5476 26.8432 41.4392 26.8071 41.3068C26.771 41.1743 26.7349 41.078 26.6867 41.0177C26.6385 40.9575 26.5663 40.8853 26.506 40.801C26.4338 40.7287 26.3495 40.6685 26.2411 40.6444C26.1327 40.6083 26.0123 40.5962 25.8798 40.5962C25.6992 40.5962 25.5306 40.6324 25.3981 40.6926C25.2656 40.7528 25.1572 40.8612 25.0729 40.9937C24.9886 41.1261 24.9284 41.2586 24.8682 41.367C24.808 41.4754 24.7839 41.644 24.7598 41.8607C24.7478 42.0775 24.7358 42.2341 24.7358 42.3304V51.507C24.7358 51.6997 24.7357 51.8563 24.7478 51.9767C24.7478 52.0971 24.7598 52.2657 24.7839 52.4825C24.796 52.6993 24.8321 52.8799 24.8803 53.0244C24.9284 53.1569 24.9886 53.3014 25.0729 53.458C25.1572 53.6145 25.2656 53.7229 25.3981 53.7952C25.5065 53.8554 25.6751 53.8915 25.8557 53.8915Z" fill="#90191C"/>
<path d="M41.6561 57.8535H35.2614L32.3711 36.6221H37.1039L38.4286 50.7001L39.8135 36.6221H44.5463L41.6561 57.8535Z" fill="#90191C"/>
<path d="M45.5581 57.8535V36.6221H54.9394V40.7407H50.3271V44.8834H54.7468V48.8696H50.3271V53.7108H55.2405V57.8535H45.5581Z" fill="#90191C"/>
<path d="M61.5149 48.1952V57.8535H56.77V36.6221H63.9716C64.7062 36.6221 65.3445 36.7184 65.8623 36.9231C66.3802 37.1279 66.8017 37.3808 67.1027 37.7059C67.4038 38.0311 67.6447 38.4646 67.8133 38.9945C67.9818 39.5364 68.1023 40.0663 68.1504 40.6082C68.1986 41.1502 68.2347 41.8005 68.2347 42.5592C68.2347 42.9566 68.2227 43.2817 68.2107 43.5346C68.1986 43.7875 68.1504 44.1127 68.0661 44.4981C67.9818 44.8834 67.8614 45.2086 67.7169 45.4615C67.5603 45.7144 67.3315 45.9673 67.0305 46.2202C66.7294 46.4731 66.3561 46.6537 65.9225 46.7982C66.3561 46.8825 66.7174 47.0271 67.0064 47.2438C67.2954 47.4606 67.5001 47.7255 67.6206 48.0507C67.741 48.3758 67.8253 48.6649 67.8735 48.9419C67.9216 49.2188 67.9337 49.5199 67.9337 49.8571C67.9337 53.3616 67.9096 56.0351 67.8855 57.8535H63.2972V49.5801C63.2972 49.255 63.2611 48.99 63.2009 48.7973C63.1406 48.6047 63.0082 48.4601 62.8275 48.3758C62.6469 48.2915 62.4662 48.2434 62.2977 48.2193C62.1291 48.1952 61.8521 48.1832 61.5149 48.1952ZM61.539 40.548V44.5101H62.7071C63.3333 44.5101 63.6464 43.8598 63.6464 42.5592C63.6464 41.7041 63.526 41.1502 63.2852 40.9093C63.0443 40.6685 62.5506 40.548 61.8039 40.548H61.539Z" fill="#90191C"/>
<path d="M75.3153 58.0944C73.1356 58.0944 71.5821 57.6007 70.6548 56.6011C69.7275 55.6016 69.2578 54.0722 69.2578 51.9887V49.9053H73.8943V51.8081C73.8943 53.181 74.2676 53.8554 75.0143 53.8554C75.3635 53.8554 75.6405 53.7229 75.8332 53.458C76.0259 53.193 76.1342 52.8438 76.1342 52.4102C76.1342 51.8442 76.0499 51.3625 75.9054 50.9651C75.7609 50.5677 75.5201 50.2064 75.1949 49.8572C74.8818 49.5079 74.3639 49.0142 73.6414 48.4L71.6543 46.6779C70.0526 45.305 69.2578 43.7515 69.2578 42.0173C69.2578 40.1386 69.7395 38.7296 70.7029 37.8144C71.6664 36.8991 72.9911 36.4294 74.6771 36.4294H75.508C75.9416 36.4294 76.5076 36.5258 77.182 36.7305C77.8564 36.9352 78.4705 37.2604 79.0125 37.7301C79.5544 38.1997 79.9518 38.85 80.2167 39.681C80.4817 40.512 80.6142 41.5236 80.6142 42.7278H75.8573L75.8332 41.4513C75.8211 41.2104 75.7248 40.9937 75.5321 40.813C75.3394 40.6324 75.1226 40.536 74.8818 40.536C74.5687 40.536 74.3037 40.6324 74.087 40.8251C73.8702 41.0178 73.7618 41.2586 73.7618 41.5597C73.7618 42.1618 74.2074 42.8242 75.0865 43.5347L77.9286 45.8228C78.3862 46.1962 78.7957 46.5695 79.1329 46.9669C79.4701 47.3643 79.7471 47.7376 79.9518 48.111C80.1565 48.4843 80.3131 48.8335 80.4335 49.1346C80.5539 49.4357 80.6503 49.7729 80.6985 50.1342C80.7466 50.4954 80.7707 50.7604 80.7827 50.9531C80.7948 51.1337 80.7948 51.3746 80.7948 51.6636C80.7948 52.4102 80.7466 53.0846 80.6503 53.6988C80.5539 54.313 80.3853 54.8911 80.1324 55.4571C79.8795 56.0231 79.5544 56.4928 79.157 56.8661C78.7475 57.2394 78.2297 57.5405 77.5794 57.7693C76.9291 57.9981 76.1704 58.0944 75.3153 58.0944Z" fill="#90191C"/>
</svg>
