<svg width="32" height="32" viewBox="0 0 32 32" fill="none" xmlns="http://www.w3.org/2000/svg">
<path d="M19.484 7.93701V13.414L21.4 14.619C21.4692 14.6339 21.5408 14.6339 21.61 14.619L29.848 9.06501C29.842 8.79546 29.7434 8.5362 29.5687 8.33078C29.3941 8.12537 29.1541 7.98632 28.889 7.93701H19.484Z" fill="#0072C6"/>
<path d="M19.484 15.4568L21.2311 16.6568C21.3128 16.7068 21.4067 16.7333 21.5026 16.7333C21.5984 16.7333 21.6923 16.7068 21.774 16.6568C21.474 16.8378 29.847 11.2788 29.847 11.2788V21.3448C29.8689 21.5488 29.8459 21.7551 29.7797 21.9492C29.7134 22.1434 29.6056 22.3207 29.4637 22.4688C29.3218 22.6169 29.1492 22.7323 28.958 22.8067C28.7669 22.8811 28.5618 22.9129 28.357 22.8998H19.483L19.484 15.4568ZM10.44 12.9318C10.1498 12.9305 9.8646 13.0077 9.61463 13.1552C9.36466 13.3028 9.15922 13.5151 9.02005 13.7698C8.64011 14.4452 8.45784 15.2138 8.49405 15.9878C8.45457 16.7602 8.6371 17.5278 9.02005 18.1998C9.15856 18.4441 9.35892 18.6476 9.60101 18.79C9.8431 18.9323 10.1184 19.0084 10.3992 19.0106C10.68 19.0128 10.9565 18.9411 11.2008 18.8027C11.4451 18.6642 11.6487 18.4639 11.7911 18.2218C12.1706 17.5532 12.3494 16.7894 12.306 16.0218C12.3494 15.2302 12.1765 14.4417 11.806 13.7408C11.6733 13.4946 11.476 13.2892 11.2353 13.1467C10.9947 13.0042 10.7197 12.9299 10.44 12.9318Z" fill="#0072C6"/>
<path d="M2.15295 5.155V26.582L18.453 30V2L2.15295 5.155ZM13.061 19.491C12.7561 19.9209 12.3507 20.2697 11.88 20.5069C11.4094 20.7442 10.8879 20.8626 10.361 20.852C9.8473 20.8611 9.33904 20.7461 8.8794 20.5166C8.41977 20.2871 8.02235 19.95 7.72095 19.534C7.00621 18.536 6.64864 17.3262 6.70595 16.1C6.6453 14.8137 7.00933 13.5431 7.74195 12.484C8.05091 12.0461 8.46275 11.6909 8.94123 11.4496C9.41972 11.2082 9.95018 11.0882 10.486 11.1C10.9958 11.0901 11.5004 11.2054 11.9554 11.4357C12.4104 11.666 12.802 12.0043 13.096 12.421C13.8036 13.4407 14.155 14.6653 14.096 15.905C14.1585 17.1821 13.7944 18.4437 13.061 19.491Z" fill="#0072C6"/>
</svg>
