<svg width="16" height="16" viewBox="0 0 16 16" fill="none" xmlns="http://www.w3.org/2000/svg">
<g clip-path="url(#clip0_305_12222)">
<path d="M9.99967 3.33236L12.6663 5.99902M14.1156 4.54029C14.4681 4.1879 14.6662 3.70993 14.6662 3.21152C14.6663 2.71311 14.4683 2.23509 14.116 1.88262C13.7636 1.53015 13.2856 1.33209 12.7872 1.33203C12.2888 1.33197 11.8108 1.5299 11.4583 1.88229L2.56096 10.7816C2.40618 10.936 2.29171 11.126 2.22763 11.335L1.34696 14.2363C1.32973 14.2939 1.32843 14.3552 1.3432 14.4135C1.35796 14.4719 1.38824 14.5251 1.43083 14.5676C1.47341 14.6101 1.52671 14.6403 1.58507 14.655C1.64343 14.6697 1.70467 14.6683 1.7623 14.651L4.6643 13.771C4.87308 13.7075 5.06308 13.5937 5.21763 13.4396L14.1156 4.54029Z" stroke="#70747D" stroke-linecap="round" stroke-linejoin="round"/>
</g>
<defs>
<clipPath id="clip0_305_12222">
<rect width="16" height="16" fill="white"/>
</clipPath>
</defs>
</svg>
