<svg width="52" height="52" viewBox="0 0 52 52" fill="none" xmlns="http://www.w3.org/2000/svg">
<g filter="url(#filter0_d_305_8293)">
<rect x="8" y="4" width="36" height="36" rx="8" fill="white" shape-rendering="crispEdges"/>
<path d="M21.067 19.9162L18.1504 21.2496C18.0072 21.3168 17.8862 21.4235 17.8014 21.5571C17.7166 21.6906 17.6715 21.8455 17.6715 22.0037C17.6715 22.1619 17.7166 22.3168 17.8014 22.4504C17.8862 22.5839 18.0072 22.6906 18.1504 22.7579L25.317 26.0162C25.533 26.114 25.7674 26.1646 26.0045 26.1646C26.2417 26.1646 26.476 26.114 26.692 26.0162L33.842 22.7662C33.9899 22.701 34.1156 22.5942 34.2039 22.4588C34.2922 22.3235 34.3392 22.1653 34.3392 22.0037C34.3392 21.8421 34.2922 21.684 34.2039 21.5486C34.1156 21.4132 33.9899 21.3064 33.842 21.2412L30.9254 19.9162M21.067 24.0829L18.1504 25.4162C18.0072 25.4835 17.8862 25.5902 17.8014 25.7237C17.7166 25.8573 17.6715 26.0122 17.6715 26.1704C17.6715 26.3286 17.7166 26.4835 17.8014 26.6171C17.8862 26.7506 18.0072 26.8573 18.1504 26.9246L25.317 30.1829C25.533 30.2807 25.7674 30.3313 26.0045 30.3313C26.2417 30.3313 26.476 30.2807 26.692 30.1829L33.842 26.9329C33.9899 26.8677 34.1156 26.7609 34.2039 26.6255C34.2922 26.4901 34.3392 26.332 34.3392 26.1704C34.3392 26.0088 34.2922 25.8506 34.2039 25.7153C34.1156 25.5799 33.9899 25.4731 33.842 25.4079L30.9254 24.0829M26.692 13.8163C26.4749 13.7173 26.239 13.666 26.0004 13.666C25.7617 13.666 25.5258 13.7173 25.3087 13.8163L18.167 17.0663C18.0192 17.1315 17.8934 17.2383 17.8052 17.3737C17.7169 17.5091 17.6699 17.6672 17.6699 17.8288C17.6699 17.9904 17.7169 18.1486 17.8052 18.2839C17.8934 18.4193 18.0192 18.5261 18.167 18.5913L25.317 21.8496C25.5342 21.9487 25.7701 21.9999 26.0087 21.9999C26.2474 21.9999 26.4832 21.9487 26.7004 21.8496L33.8504 18.5996C33.9983 18.5344 34.124 18.4276 34.2122 18.2923C34.3005 18.1569 34.3475 17.9988 34.3475 17.8371C34.3475 17.6755 34.3005 17.5174 34.2122 17.382C34.124 17.2466 33.9983 17.1398 33.8504 17.0746L26.692 13.8163Z" stroke="#F87B1B" stroke-linecap="round" stroke-linejoin="round"/>
</g>
<defs>
<filter id="filter0_d_305_8293" x="0" y="0" width="52" height="52" filterUnits="userSpaceOnUse" color-interpolation-filters="sRGB">
<feFlood flood-opacity="0" result="BackgroundImageFix"/>
<feColorMatrix in="SourceAlpha" type="matrix" values="0 0 0 0 0 0 0 0 0 0 0 0 0 0 0 0 0 0 127 0" result="hardAlpha"/>
<feOffset dy="4"/>
<feGaussianBlur stdDeviation="4"/>
<feComposite in2="hardAlpha" operator="out"/>
<feColorMatrix type="matrix" values="0 0 0 0 0 0 0 0 0 0 0 0 0 0 0 0 0 0 0.08 0"/>
<feBlend mode="normal" in2="BackgroundImageFix" result="effect1_dropShadow_305_8293"/>
<feBlend mode="normal" in="SourceGraphic" in2="effect1_dropShadow_305_8293" result="shape"/>
</filter>
</defs>
</svg>
